<svg xmlns="http://www.w3.org/2000/svg" width="500" height="200"><path d="M246,115L253,146L269,111Z" fill="#ffd75b" stroke="#ffd75b" stroke-width="1.51"/><path d="M209,147L217,156L253,146Z" fill="#ffd56b" stroke="#ffd56b" stroke-width="1.51"/><path d="M246,115L209,147L253,146Z" fill="#ffd561" stroke="#ffd561" stroke-width="1.51"/><path d="M253,146L285,182L269,111Z" fill="#ffdb6e" stroke="#ffdb6e" stroke-width="1.51"/><path d="M249,188L285,182L253,146Z" fill="#ffde7d" stroke="#ffde7d" stroke-width="1.51"/><path d="M217,156L249,188L253,146Z" fill="#ffda74" stroke="#ffda74" stroke-width="1.51"/><path d="M285,182L327,122L269,111Z" fill="#ffdb6f" stroke="#ffdb6f" stroke-width="1.51"/><path d="M249,188L257,203L285,182Z" fill="#ffe189" stroke="#ffe189" stroke-width="1.51"/><path d="M236,228L257,203L249,188Z" fill="#ffe18b" stroke="#ffe18b" stroke-width="1.51"/><path d="M203,181L249,188L217,156Z" fill="#ffd77c" stroke="#ffd77c" stroke-width="1.51"/><path d="M269,111L258,52L246,115Z" fill="#ffcf4a" stroke="#ffcf4a" stroke-width="1.51"/><path d="M246,115L191,96L209,147Z" fill="#fece57" stroke="#fece57" stroke-width="1.51"/><path d="M314,73L258,52L269,111Z" fill="#fec852" stroke="#fec852" stroke-width="1.51"/><path d="M222,53L191,96L246,115Z" fill="#fec54a" stroke="#fec54a" stroke-width="1.51"/><path d="M327,122L327,90L269,111Z" fill="#ffd75e" stroke="#ffd75e" stroke-width="1.51"/><path d="M327,90L314,73L269,111Z" fill="#ffd158" stroke="#ffd158" stroke-width="1.51"/><path d="M209,147L203,181L217,156Z" fill="#ffd273" stroke="#ffd273" stroke-width="1.51"/><path d="M150,168L203,181L209,147Z" fill="#ffcd76" stroke="#ffcd76" stroke-width="1.51"/><path d="M327,122L339,96L327,90Z" fill="#ffd861" stroke="#ffd861" stroke-width="1.51"/><path d="M340,175L342,122L327,122Z" fill="#ffde7b" stroke="#ffde7b" stroke-width="1.51"/><path d="M258,52L222,53L246,115Z" fill="#fdc14b" stroke="#fdc14b" stroke-width="1.51"/><path d="M342,122L339,96L327,122Z" fill="#ffda69" stroke="#ffda69" stroke-width="1.51"/><path d="M327,90L353,56L314,73Z" fill="#fec761" stroke="#fec761" stroke-width="1.51"/><path d="M285,182L340,175L327,122Z" fill="#ffe083" stroke="#ffe083" stroke-width="1.51"/><path d="M294,212L317,195L285,182Z" fill="#ffe496" stroke="#ffe496" stroke-width="1.51"/><path d="M257,203L294,212L285,182Z" fill="#ffe392" stroke="#ffe392" stroke-width="1.51"/><path d="M317,195L340,175L285,182Z" fill="#ffe391" stroke="#ffe391" stroke-width="1.51"/><path d="M222,53L195,58L191,96Z" fill="#fcb54d" stroke="#fcb54d" stroke-width="1.51"/><path d="M284,260L295,253L294,212Z" fill="#ffe495" stroke="#ffe495" stroke-width="1.51"/><path d="M201,218L236,228L249,188Z" fill="#ffdd8b" stroke="#ffdd8b" stroke-width="1.51"/><path d="M203,181L201,218L249,188Z" fill="#ffd989" stroke="#ffd989" stroke-width="1.51"/><path d="M138,205L201,218L203,181Z" fill="#ffd18c" stroke="#ffd18c" stroke-width="1.51"/><path d="M140,130L150,168L209,147Z" fill="#fec66b" stroke="#fec66b" stroke-width="1.51"/><path d="M140,130L209,147L191,96Z" fill="#fdc65b" stroke="#fdc65b" stroke-width="1.51"/><path d="M370,66L353,56L339,96Z" fill="#fec967" stroke="#fec967" stroke-width="1.51"/><path d="M339,96L353,56L327,90Z" fill="#fecc62" stroke="#fecc62" stroke-width="1.51"/><path d="M314,73L312,22L258,52Z" fill="#fbb658" stroke="#fbb658" stroke-width="1.51"/><path d="M370,66L339,96L396,116Z" fill="#ffd56a" stroke="#ffd56a" stroke-width="1.51"/><path d="M252,10L215,19L222,53Z" fill="#f9a24f" stroke="#f9a24f" stroke-width="1.51"/><path d="M222,53L215,19L195,58Z" fill="#f9a74f" stroke="#f9a74f" stroke-width="1.51"/><path d="M252,10L222,53L258,52Z" fill="#faac4e" stroke="#faac4e" stroke-width="1.51"/><path d="M353,56L312,22L314,73Z" fill="#fcb961" stroke="#fcb961" stroke-width="1.51"/><path d="M312,22L252,10L258,52Z" fill="#faa955" stroke="#faa955" stroke-width="1.51"/><path d="M139,98L191,96L153,58Z" fill="#fcb44d" stroke="#fcb44d" stroke-width="1.51"/><path d="M139,98L140,130L191,96Z" fill="#fcbe51" stroke="#fcbe51" stroke-width="1.51"/><path d="M153,58L191,96L195,58Z" fill="#fbb14d" stroke="#fbb14d" stroke-width="1.51"/><path d="M353,56L361,15L312,22Z" fill="#faaf66" stroke="#faaf66" stroke-width="1.51"/><path d="M396,116L339,96L342,122Z" fill="#ffdb6e" stroke="#ffdb6e" stroke-width="1.51"/><path d="M150,31L153,58L195,58Z" fill="#f89f4f" stroke="#f89f4f" stroke-width="1.51"/><path d="M294,212L359,233L317,195Z" fill="#ffe69e" stroke="#ffe69e" stroke-width="1.51"/><path d="M371,216L383,182L340,175Z" fill="#ffe7a2" stroke="#ffe7a2" stroke-width="1.51"/><path d="M284,260L294,212L257,203Z" fill="#ffe392" stroke="#ffe392" stroke-width="1.51"/><path d="M284,260L257,203L236,228Z" fill="#ffe28e" stroke="#ffe28e" stroke-width="1.51"/><path d="M213,266L284,260L236,228Z" fill="#ffe08b" stroke="#ffe08b" stroke-width="1.51"/><path d="M139,98L126,125L140,130Z" fill="#fcba58" stroke="#fcba58" stroke-width="1.51"/><path d="M140,130L126,125L150,168Z" fill="#fdbe67" stroke="#fdbe67" stroke-width="1.51"/><path d="M114,93L126,125L139,98Z" fill="#fcb650" stroke="#fcb650" stroke-width="1.51"/><path d="M340,175L383,182L342,122Z" fill="#ffe28c" stroke="#ffe28c" stroke-width="1.51"/><path d="M371,216L340,175L317,195Z" fill="#ffe79f" stroke="#ffe79f" stroke-width="1.51"/><path d="M200,-12L200,8L215,19Z" fill="#f68d51" stroke="#f68d51" stroke-width="1.51"/><path d="M215,19L200,8L195,58Z" fill="#f89c4f" stroke="#f89c4f" stroke-width="1.51"/><path d="M400,135L396,116L342,122Z" fill="#ffde7c" stroke="#ffde7c" stroke-width="1.51"/><path d="M383,182L400,135L342,122Z" fill="#ffe189" stroke="#ffe189" stroke-width="1.51"/><path d="M359,233L371,216L317,195Z" fill="#ffe8a4" stroke="#ffe8a4" stroke-width="1.51"/><path d="M412,185L418,139L400,135Z" fill="#ffe496" stroke="#ffe496" stroke-width="1.51"/><path d="M359,233L294,212L295,253Z" fill="#ffe69c" stroke="#ffe69c" stroke-width="1.51"/><path d="M201,218L213,266L236,228Z" fill="#ffda8b" stroke="#ffda8b" stroke-width="1.51"/><path d="M138,205L191,253L201,218Z" fill="#ffd08c" stroke="#ffd08c" stroke-width="1.51"/><path d="M138,205L203,181L150,168Z" fill="#ffca82" stroke="#ffca82" stroke-width="1.51"/><path d="M356,254L359,233L295,253Z" fill="#ffe7a1" stroke="#ffe7a1" stroke-width="1.51"/><path d="M119,200L138,205L150,168Z" fill="#ffc587" stroke="#ffc587" stroke-width="1.51"/><path d="M252,10L248,-17L215,19Z" fill="#f69550" stroke="#f69550" stroke-width="1.51"/><path d="M299,-20L248,-17L252,10Z" fill="#f79754" stroke="#f79754" stroke-width="1.51"/><path d="M191,253L213,266L201,218Z" fill="#ffd68b" stroke="#ffd68b" stroke-width="1.51"/><path d="M200,8L150,31L195,58Z" fill="#f79950" stroke="#f79950" stroke-width="1.51"/><path d="M153,58L114,93L139,98Z" fill="#fbad4e" stroke="#fbad4e" stroke-width="1.51"/><path d="M152,-19L150,31L200,8Z" fill="#f38551" stroke="#f38551" stroke-width="1.51"/><path d="M99,194L119,200L150,168Z" fill="#fec184" stroke="#fec184" stroke-width="1.51"/><path d="M120,42L114,93L153,58Z" fill="#f9a04f" stroke="#f9a04f" stroke-width="1.51"/><path d="M376,13L361,15L353,56Z" fill="#faae6b" stroke="#faae6b" stroke-width="1.51"/><path d="M312,22L299,-20L252,10Z" fill="#f79a59" stroke="#f79a59" stroke-width="1.51"/><path d="M376,13L353,56L370,66Z" fill="#fcb96b" stroke="#fcb96b" stroke-width="1.51"/><path d="M248,-17L200,-12L215,19Z" fill="#f68e51" stroke="#f68e51" stroke-width="1.51"/><path d="M343,-40L299,-20L312,22Z" fill="#f79a61" stroke="#f79a61" stroke-width="1.51"/><path d="M359,233L370,249L371,216Z" fill="#ffe9a8" stroke="#ffe9a8" stroke-width="1.51"/><path d="M284,260L356,254L295,253Z" fill="#ffe59b" stroke="#ffe59b" stroke-width="1.51"/><path d="M442,264L356,254L284,260Z" fill="#ffe8a7" stroke="#ffe8a7" stroke-width="1.51"/><path d="M412,185L383,182L371,216Z" fill="#ffe9aa" stroke="#ffe9aa" stroke-width="1.51"/><path d="M412,185L400,135L383,182Z" fill="#ffe69c" stroke="#ffe69c" stroke-width="1.51"/><path d="M400,135L418,139L396,116Z" fill="#ffe086" stroke="#ffe086" stroke-width="1.51"/><path d="M427,51L376,13L370,66Z" fill="#fcb971" stroke="#fcb971" stroke-width="1.51"/><path d="M99,194L150,168L126,125Z" fill="#fdbe75" stroke="#fdbe75" stroke-width="1.51"/><path d="M138,205L146,272L191,253Z" fill="#ffcb8c" stroke="#ffcb8c" stroke-width="1.51"/><path d="M437,233L412,185L371,216Z" fill="#ffebb2" stroke="#ffebb2" stroke-width="1.51"/><path d="M361,15L343,-40L312,22Z" fill="#f79b66" stroke="#f79b66" stroke-width="1.51"/><path d="M427,51L370,66L396,116Z" fill="#ffce72" stroke="#ffce72" stroke-width="1.51"/><path d="M356,254L370,249L359,233Z" fill="#ffe8a7" stroke="#ffe8a7" stroke-width="1.51"/><path d="M299,-20L278,-35L248,-17Z" fill="#f79756" stroke="#f79756" stroke-width="1.51"/><path d="M248,-17L225,-71L200,-12Z" fill="#f68f51" stroke="#f68f51" stroke-width="1.51"/><path d="M323,-77L278,-35L299,-20Z" fill="#f7995c" stroke="#f7995c" stroke-width="1.51"/><path d="M150,31L120,42L153,58Z" fill="#f79650" stroke="#f79650" stroke-width="1.51"/><path d="M104,21L120,42L150,31Z" fill="#f58a51" stroke="#f58a51" stroke-width="1.51"/><path d="M82,194L99,194L68,139Z" fill="#fcb57d" stroke="#fcb57d" stroke-width="1.51"/><path d="M115,278L146,272L138,205Z" fill="#ffc58c" stroke="#ffc58c" stroke-width="1.51"/><path d="M81,97L126,125L114,93Z" fill="#fbb151" stroke="#fbb151" stroke-width="1.51"/><path d="M418,139L439,106L396,116Z" fill="#ffe084" stroke="#ffe084" stroke-width="1.51"/><path d="M478,120L439,106L418,139Z" fill="#ffe18b" stroke="#ffe18b" stroke-width="1.51"/><path d="M73,59L81,97L114,93Z" fill="#f9a24f" stroke="#f9a24f" stroke-width="1.51"/><path d="M120,42L73,59L114,93Z" fill="#f89950" stroke="#f89950" stroke-width="1.51"/><path d="M200,-12L152,-19L200,8Z" fill="#f38551" stroke="#f38551" stroke-width="1.51"/><path d="M144,-48L152,-19L182,-77Z" fill="#f37e52" stroke="#f37e52" stroke-width="1.51"/><path d="M115,278L138,205L119,200Z" fill="#ffc38c" stroke="#ffc38c" stroke-width="1.51"/><path d="M191,253L146,272L213,266Z" fill="#ffd28c" stroke="#ffd28c" stroke-width="1.51"/><path d="M474,272L442,264L284,260Z" fill="#ffebb1" stroke="#ffebb1" stroke-width="1.51"/><path d="M439,106L427,51L396,116Z" fill="#ffd777" stroke="#ffd777" stroke-width="1.51"/><path d="M407,-11L343,-40L376,13Z" fill="#f89d6e" stroke="#f89d6e" stroke-width="1.51"/><path d="M376,13L343,-40L361,15Z" fill="#f89c6b" stroke="#f89c6b" stroke-width="1.51"/><path d="M152,-19L104,21L150,31Z" fill="#f27f52" stroke="#f27f52" stroke-width="1.51"/><path d="M73,222L115,278L119,200Z" fill="#febe8c" stroke="#febe8c" stroke-width="1.51"/><path d="M68,139L99,194L126,125Z" fill="#fcb66f" stroke="#fcb66f" stroke-width="1.51"/><path d="M34,141L68,139L81,97Z" fill="#f9a95f" stroke="#f9a95f" stroke-width="1.51"/><path d="M81,97L68,139L126,125Z" fill="#fbb05b" stroke="#fbb05b" stroke-width="1.51"/><path d="M72,37L73,59L120,42Z" fill="#f58a51" stroke="#f58a51" stroke-width="1.51"/><path d="M269,-77L225,-71L278,-35Z" fill="#f79652" stroke="#f79652" stroke-width="1.51"/><path d="M278,-35L225,-71L248,-17Z" fill="#f79650" stroke="#f79650" stroke-width="1.51"/><path d="M427,51L407,-11L376,13Z" fill="#faaa75" stroke="#faaa75" stroke-width="1.51"/><path d="M412,185L460,167L418,139Z" fill="#ffe7a2" stroke="#ffe7a2" stroke-width="1.51"/><path d="M479,41L443,28L427,51Z" fill="#fdbb80" stroke="#fdbb80" stroke-width="1.51"/><path d="M460,230L460,167L412,185Z" fill="#ffecb8" stroke="#ffecb8" stroke-width="1.51"/><path d="M323,-77L269,-77L278,-35Z" fill="#f7985a" stroke="#f7985a" stroke-width="1.51"/><path d="M323,-77L299,-20L343,-40Z" fill="#f79a62" stroke="#f79a62" stroke-width="1.51"/><path d="M370,249L437,233L371,216Z" fill="#ffeaaf" stroke="#ffeaaf" stroke-width="1.51"/><path d="M442,264L437,233L370,249Z" fill="#ffecb5" stroke="#ffecb5" stroke-width="1.51"/><path d="M478,83L427,51L439,106Z" fill="#ffd37f" stroke="#ffd37f" stroke-width="1.51"/><path d="M427,51L443,28L407,-11Z" fill="#fbaf7a" stroke="#fbaf7a" stroke-width="1.51"/><path d="M146,272L115,278L213,266Z" fill="#ffcb8c" stroke="#ffcb8c" stroke-width="1.51"/><path d="M73,222L119,200L99,194Z" fill="#febc8c" stroke="#febc8c" stroke-width="1.51"/><path d="M104,21L72,37L120,42Z" fill="#f48452" stroke="#f48452" stroke-width="1.51"/><path d="M152,-19L99,-5L104,21Z" fill="#f07352" stroke="#f07352" stroke-width="1.51"/><path d="M144,-48L99,-5L152,-19Z" fill="#f17752" stroke="#f17752" stroke-width="1.51"/><path d="M34,141L46,186L68,139Z" fill="#faaa71" stroke="#faaa71" stroke-width="1.51"/><path d="M85,-9L72,37L104,21Z" fill="#f17652" stroke="#f17652" stroke-width="1.51"/><path d="M46,186L73,222L82,194Z" fill="#fdb58c" stroke="#fdb58c" stroke-width="1.51"/><path d="M82,194L73,222L99,194Z" fill="#feba8c" stroke="#feba8c" stroke-width="1.51"/><path d="M182,-77L152,-19L200,-12Z" fill="#f38351" stroke="#f38351" stroke-width="1.51"/><path d="M407,-11L357,-62L343,-40Z" fill="#f89d6d" stroke="#f89d6d" stroke-width="1.51"/><path d="M357,-62L323,-77L343,-40Z" fill="#f79b66" stroke="#f79b66" stroke-width="1.51"/><path d="M460,167L478,120L418,139Z" fill="#ffe599" stroke="#ffe599" stroke-width="1.51"/><path d="M513,154L478,120L460,167Z" fill="#ffe8a5" stroke="#ffe8a5" stroke-width="1.51"/><path d="M225,-71L182,-77L200,-12Z" fill="#f48a51" stroke="#f48a51" stroke-width="1.51"/><path d="M269,-77L182,-77L225,-71Z" fill="#f68f50" stroke="#f68f50" stroke-width="1.51"/><path d="M68,139L46,186L82,194Z" fill="#fcb17c" stroke="#fcb17c" stroke-width="1.51"/><path d="M34,141L81,97L10,119Z" fill="#f9a35b" stroke="#f9a35b" stroke-width="1.51"/><path d="M79,-54L85,-9L99,-5Z" fill="#ee6a52" stroke="#ee6a52" stroke-width="1.51"/><path d="M99,-5L85,-9L104,21Z" fill="#ef6e52" stroke="#ef6e52" stroke-width="1.51"/><path d="M79,-54L99,-5L144,-48Z" fill="#ef7052" stroke="#ef7052" stroke-width="1.51"/><path d="M478,120L478,83L439,106Z" fill="#ffe085" stroke="#ffe085" stroke-width="1.51"/><path d="M437,233L460,230L412,185Z" fill="#ffedba" stroke="#ffedba" stroke-width="1.51"/><path d="M442,264L460,230L437,233Z" fill="#ffedbc" stroke="#ffedbc" stroke-width="1.51"/><path d="M23,58L73,59L72,37Z" fill="#f48451" stroke="#f48451" stroke-width="1.51"/><path d="M23,58L81,97L73,59Z" fill="#f69250" stroke="#f69250" stroke-width="1.51"/><path d="M356,254L442,264L370,249Z" fill="#ffeaae" stroke="#ffeaae" stroke-width="1.51"/><path d="M474,272L284,260L213,266Z" fill="#ffe69e" stroke="#ffe69e" stroke-width="1.51"/><path d="M467,-27L427,-26L443,28Z" fill="#f9a17f" stroke="#f9a17f" stroke-width="1.51"/><path d="M443,28L427,-26L407,-11Z" fill="#f9a07a" stroke="#f9a07a" stroke-width="1.51"/><path d="M407,-11L404,-79L357,-62Z" fill="#f89e71" stroke="#f89e71" stroke-width="1.51"/><path d="M478,83L479,41L427,51Z" fill="#fec682" stroke="#fec682" stroke-width="1.51"/><path d="M498,52L479,41L478,83Z" fill="#ffc888" stroke="#ffc888" stroke-width="1.51"/><path d="M30,1L23,58L72,37Z" fill="#f07453" stroke="#f07453" stroke-width="1.51"/><path d="M491,24L480,14L479,41Z" fill="#fdb488" stroke="#fdb488" stroke-width="1.51"/><path d="M479,41L480,14L443,28Z" fill="#fcb484" stroke="#fcb484" stroke-width="1.51"/><path d="M540,84L498,52L478,83Z" fill="#ffd18c" stroke="#ffd18c" stroke-width="1.51"/><path d="M520,111L478,83L478,120Z" fill="#ffe28c" stroke="#ffe28c" stroke-width="1.51"/><path d="M23,58L10,119L81,97Z" fill="#f89a50" stroke="#f89a50" stroke-width="1.51"/><path d="M34,141L7,158L46,186Z" fill="#faa675" stroke="#faa675" stroke-width="1.51"/><path d="M20,222L73,222L46,186Z" fill="#fdb08b" stroke="#fdb08b" stroke-width="1.51"/><path d="M38,274L56,275L73,222Z" fill="#fdb28c" stroke="#fdb28c" stroke-width="1.51"/><path d="M73,222L56,275L115,278Z" fill="#fdb98c" stroke="#fdb98c" stroke-width="1.51"/><path d="M460,230L497,213L460,167Z" fill="#ffefc2" stroke="#ffefc2" stroke-width="1.51"/><path d="M491,250L497,213L460,230Z" fill="#fff0c5" stroke="#fff0c5" stroke-width="1.51"/><path d="M423,-79L404,-79L427,-26Z" fill="#f9a079" stroke="#f9a079" stroke-width="1.51"/><path d="M427,-26L404,-79L407,-11Z" fill="#f99f77" stroke="#f99f77" stroke-width="1.51"/><path d="M357,-62L404,-79L323,-77Z" fill="#f89c6b" stroke="#f89c6b" stroke-width="1.51"/><path d="M323,-77L404,-79L269,-77Z" fill="#f79b64" stroke="#f79b64" stroke-width="1.51"/><path d="M269,-77L404,-79L182,-77Z" fill="#f79859" stroke="#f79859" stroke-width="1.51"/><path d="M498,52L491,24L479,41Z" fill="#febc89" stroke="#febc89" stroke-width="1.51"/><path d="M480,14L467,-27L443,28Z" fill="#faa583" stroke="#faa583" stroke-width="1.51"/><path d="M523,176L513,154L460,167Z" fill="#ffebb4" stroke="#ffebb4" stroke-width="1.51"/><path d="M10,119L7,158L34,141Z" fill="#f8a068" stroke="#f8a068" stroke-width="1.51"/><path d="M85,-9L30,1L72,37Z" fill="#ee6a53" stroke="#ee6a53" stroke-width="1.51"/><path d="M96,-75L79,-54L144,-48Z" fill="#ef6f52" stroke="#ef6f52" stroke-width="1.51"/><path d="M442,264L474,272L460,230Z" fill="#ffeebf" stroke="#ffeebf" stroke-width="1.51"/><path d="M115,278L474,272L213,266Z" fill="#ffe390" stroke="#ffe390" stroke-width="1.51"/><path d="M-2,189L20,222L46,186Z" fill="#fbaa8b" stroke="#fbaa8b" stroke-width="1.51"/><path d="M492,-31L467,-27L480,14Z" fill="#faa387" stroke="#faa387" stroke-width="1.51"/><path d="M513,154L520,111L478,120Z" fill="#ffe69d" stroke="#ffe69d" stroke-width="1.51"/><path d="M551,22L492,-31L491,24Z" fill="#fba88c" stroke="#fba88c" stroke-width="1.51"/><path d="M474,272L491,250L460,230Z" fill="#ffefc3" stroke="#ffefc3" stroke-width="1.51"/><path d="M497,213L523,176L460,167Z" fill="#ffeebf" stroke="#ffeebf" stroke-width="1.51"/><path d="M182,-77L96,-75L144,-48Z" fill="#f17952" stroke="#f17952" stroke-width="1.51"/><path d="M34,-13L85,-9L79,-54Z" fill="#ed6453" stroke="#ed6453" stroke-width="1.51"/><path d="M34,-13L30,1L85,-9Z" fill="#ec5f53" stroke="#ec5f53" stroke-width="1.51"/><path d="M23,58L-3,112L10,119Z" fill="#f79650" stroke="#f79650" stroke-width="1.51"/><path d="M467,-27L423,-79L427,-26Z" fill="#f9a17d" stroke="#f9a17d" stroke-width="1.51"/><path d="M10,119L-3,112L7,158Z" fill="#f89c62" stroke="#f89c62" stroke-width="1.51"/><path d="M7,158L-2,189L46,186Z" fill="#faa57f" stroke="#faa57f" stroke-width="1.51"/><path d="M-2,64L-3,112L23,58Z" fill="#f48951" stroke="#f48951" stroke-width="1.51"/><path d="M20,222L38,274L73,222Z" fill="#fcaf8c" stroke="#fcaf8c" stroke-width="1.51"/><path d="M-2,3L-2,64L23,58Z" fill="#f07152" stroke="#f07152" stroke-width="1.51"/><path d="M-2,3L34,-13L-12,-21Z" fill="#ea5153" stroke="#ea5153" stroke-width="1.51"/><path d="M513,154L540,133L520,111Z" fill="#ffe7a0" stroke="#ffe7a0" stroke-width="1.51"/><path d="M546,224L523,176L497,213Z" fill="#fff1c9" stroke="#fff1c9" stroke-width="1.51"/><path d="M20,222L-29,271L38,274Z" fill="#fba78c" stroke="#fba78c" stroke-width="1.51"/><path d="M-20,202L-2,189L-57,193Z" fill="#faa488" stroke="#faa488" stroke-width="1.51"/><path d="M-2,3L23,58L30,1Z" fill="#ed6553" stroke="#ed6553" stroke-width="1.51"/><path d="M523,176L540,133L513,154Z" fill="#ffeaad" stroke="#ffeaad" stroke-width="1.51"/><path d="M520,111L540,84L478,83Z" fill="#ffdd8b" stroke="#ffdd8b" stroke-width="1.51"/><path d="M467,-27L478,-68L423,-79Z" fill="#f9a281" stroke="#f9a281" stroke-width="1.51"/><path d="M491,24L492,-31L480,14Z" fill="#fba589" stroke="#fba589" stroke-width="1.51"/><path d="M551,22L491,24L498,52Z" fill="#fdb98c" stroke="#fdb98c" stroke-width="1.51"/><path d="M540,133L540,84L520,111Z" fill="#ffe391" stroke="#ffe391" stroke-width="1.51"/><path d="M-2,189L-20,202L20,222Z" fill="#faa58c" stroke="#faa58c" stroke-width="1.51"/><path d="M-57,193L-2,189L7,158Z" fill="#f9a280" stroke="#f9a280" stroke-width="1.51"/><path d="M-34,121L7,158L-3,112Z" fill="#f79a63" stroke="#f79a63" stroke-width="1.51"/><path d="M-42,116L-34,121L-3,112Z" fill="#f7985a" stroke="#f7985a" stroke-width="1.51"/><path d="M34,-13L-2,3L30,1Z" fill="#eb5653" stroke="#eb5653" stroke-width="1.51"/><path d="M17,-57L34,-13L79,-54Z" fill="#ec5d53" stroke="#ec5d53" stroke-width="1.51"/><path d="M492,-31L478,-68L467,-27Z" fill="#faa387" stroke="#faa387" stroke-width="1.51"/><path d="M514,-75L478,-68L492,-31Z" fill="#faa48a" stroke="#faa48a" stroke-width="1.51"/><path d="M-42,116L-3,112L-2,64Z" fill="#f79450" stroke="#f79450" stroke-width="1.51"/><path d="M474,272L534,247L491,250Z" fill="#fff1c9" stroke="#fff1c9" stroke-width="1.51"/><path d="M491,250L534,247L497,213Z" fill="#fff1c9" stroke="#fff1c9" stroke-width="1.51"/><path d="M523,176L563,196L540,133Z" fill="#ffecb6" stroke="#ffecb6" stroke-width="1.51"/><path d="M534,247L546,224L497,213Z" fill="#fff1c9" stroke="#fff1c9" stroke-width="1.51"/><path d="M566,41L551,22L540,84Z" fill="#ffc38c" stroke="#ffc38c" stroke-width="1.51"/><path d="M-66,73L-42,116L-2,64Z" fill="#f58c51" stroke="#f58c51" stroke-width="1.51"/><path d="M-57,193L-50,212L-20,202Z" fill="#faa58c" stroke="#faa58c" stroke-width="1.51"/><path d="M96,-75L17,-57L79,-54Z" fill="#ed6453" stroke="#ed6453" stroke-width="1.51"/><path d="M-2,3L-45,24L-2,64Z" fill="#ee6753" stroke="#ee6753" stroke-width="1.51"/><path d="M540,84L551,22L498,52Z" fill="#ffc58c" stroke="#ffc58c" stroke-width="1.51"/><path d="M566,41L540,84L540,133Z" fill="#ffd98b" stroke="#ffd98b" stroke-width="1.51"/><path d="M17,-57L-12,-21L34,-13Z" fill="#ea5453" stroke="#ea5453" stroke-width="1.51"/><path d="M546,224L563,196L523,176Z" fill="#fff1c8" stroke="#fff1c8" stroke-width="1.51"/><path d="M534,247L563,196L546,224Z" fill="#fff1c9" stroke="#fff1c9" stroke-width="1.51"/><path d="M563,196L566,41L540,133Z" fill="#ffe59a" stroke="#ffe59a" stroke-width="1.51"/><path d="M-20,202L-29,271L20,222Z" fill="#faa58c" stroke="#faa58c" stroke-width="1.51"/><path d="M-57,193L7,158L-34,121Z" fill="#f89e72" stroke="#f89e72" stroke-width="1.51"/><path d="M-42,116L-57,193L-34,121Z" fill="#f89c6a" stroke="#f89c6a" stroke-width="1.51"/><path d="M-12,-21L-45,24L-2,3Z" fill="#ea5153" stroke="#ea5153" stroke-width="1.51"/><path d="M-50,212L-29,271L-20,202Z" fill="#faa58c" stroke="#faa58c" stroke-width="1.51"/><path d="M38,274L-50,276L56,275Z" fill="#fba88c" stroke="#fba88c" stroke-width="1.51"/><path d="M56,275L-50,276L115,278Z" fill="#fcaf8c" stroke="#fcaf8c" stroke-width="1.51"/><path d="M-50,212L-50,276L-29,271Z" fill="#faa58c" stroke="#faa58c" stroke-width="1.51"/><path d="M-66,73L-57,193L-42,116Z" fill="#f79a61" stroke="#f79a61" stroke-width="1.51"/><path d="M478,-68L514,-75L423,-79Z" fill="#faa385" stroke="#faa385" stroke-width="1.51"/><path d="M537,-73L514,-75L492,-31Z" fill="#faa58c" stroke="#faa58c" stroke-width="1.51"/><path d="M565,-11L492,-31L551,22Z" fill="#faa58c" stroke="#faa58c" stroke-width="1.51"/><path d="M-12,-21L-34,-33L-45,24Z" fill="#e94f53" stroke="#e94f53" stroke-width="1.51"/><path d="M17,-57L-20,-42L-12,-21Z" fill="#e94f53" stroke="#e94f53" stroke-width="1.51"/><path d="M-45,24L-66,73L-2,64Z" fill="#f17752" stroke="#f17752" stroke-width="1.51"/><path d="M-57,-50L-66,73L-45,24Z" fill="#ec5c53" stroke="#ec5c53" stroke-width="1.51"/><path d="M566,41L565,-11L551,22Z" fill="#fcaf8c" stroke="#fcaf8c" stroke-width="1.51"/><path d="M-20,-42L-34,-33L-12,-21Z" fill="#e94f53" stroke="#e94f53" stroke-width="1.51"/><path d="M565,-11L537,-73L492,-31Z" fill="#faa58c" stroke="#faa58c" stroke-width="1.51"/><path d="M-57,193L-50,276L-50,212Z" fill="#faa58c" stroke="#faa58c" stroke-width="1.51"/><path d="M-29,271L-50,276L38,274Z" fill="#faa58c" stroke="#faa58c" stroke-width="1.51"/><path d="M-20,-42L-57,-50L-34,-33Z" fill="#e94f53" stroke="#e94f53" stroke-width="1.51"/><path d="M-34,-33L-57,-50L-45,24Z" fill="#e94f53" stroke="#e94f53" stroke-width="1.51"/><path d="M17,-57L-57,-50L-20,-42Z" fill="#e94f53" stroke="#e94f53" stroke-width="1.51"/><path d="M96,-75L-57,-50L17,-57Z" fill="#ea5553" stroke="#ea5553" stroke-width="1.51"/></svg>